<mxfile host="app.diagrams.net" agent="Mozilla/5.0 (Windows NT 10.0; Win64; x64) AppleWebKit/537.36 (KHTML, like Gecko) Chrome/139.0.0.0 Safari/537.36" version="28.1.2">
  <diagram id="W6UL7syqf61I57blcPAL" name="Página-1">
    <mxGraphModel dx="650" dy="747" grid="1" gridSize="10" guides="1" tooltips="1" connect="1" arrows="1" fold="1" page="1" pageScale="1" pageWidth="827" pageHeight="1169" math="0" shadow="0">
      <root>
        <mxCell id="0" />
        <mxCell id="1" parent="0" />
        <mxCell id="WmCg8ebD5vWWNZr771tL-6" value="Usuario" style="shape=umlFrame;whiteSpace=wrap;html=1;pointerEvents=0;" vertex="1" parent="1">
          <mxGeometry x="10" y="90" width="650" height="510" as="geometry" />
        </mxCell>
        <mxCell id="WmCg8ebD5vWWNZr771tL-32" style="edgeStyle=orthogonalEdgeStyle;rounded=0;orthogonalLoop=1;jettySize=auto;html=1;exitX=0.5;exitY=1;exitDx=0;exitDy=0;entryX=0.5;entryY=0;entryDx=0;entryDy=0;" edge="1" parent="1" source="WmCg8ebD5vWWNZr771tL-7" target="WmCg8ebD5vWWNZr771tL-8">
          <mxGeometry relative="1" as="geometry" />
        </mxCell>
        <mxCell id="WmCg8ebD5vWWNZr771tL-7" value="Login" style="html=1;whiteSpace=wrap;rounded=1;" vertex="1" parent="1">
          <mxGeometry x="278" y="110" width="110" height="50" as="geometry" />
        </mxCell>
        <mxCell id="WmCg8ebD5vWWNZr771tL-33" style="edgeStyle=orthogonalEdgeStyle;rounded=0;orthogonalLoop=1;jettySize=auto;html=1;exitX=0.5;exitY=1;exitDx=0;exitDy=0;entryX=0.5;entryY=0;entryDx=0;entryDy=0;" edge="1" parent="1" source="WmCg8ebD5vWWNZr771tL-8" target="WmCg8ebD5vWWNZr771tL-9">
          <mxGeometry relative="1" as="geometry" />
        </mxCell>
        <mxCell id="WmCg8ebD5vWWNZr771tL-8" value="Navega pelo catalogo" style="html=1;whiteSpace=wrap;rounded=1;" vertex="1" parent="1">
          <mxGeometry x="278" y="190" width="110" height="50" as="geometry" />
        </mxCell>
        <mxCell id="WmCg8ebD5vWWNZr771tL-25" style="edgeStyle=orthogonalEdgeStyle;rounded=0;orthogonalLoop=1;jettySize=auto;html=1;exitX=0;exitY=0.5;exitDx=0;exitDy=0;entryX=0.5;entryY=0;entryDx=0;entryDy=0;" edge="1" parent="1" source="WmCg8ebD5vWWNZr771tL-9" target="WmCg8ebD5vWWNZr771tL-19">
          <mxGeometry relative="1" as="geometry" />
        </mxCell>
        <mxCell id="WmCg8ebD5vWWNZr771tL-27" style="edgeStyle=orthogonalEdgeStyle;rounded=0;orthogonalLoop=1;jettySize=auto;html=1;exitX=1;exitY=0.5;exitDx=0;exitDy=0;entryX=0.5;entryY=0;entryDx=0;entryDy=0;" edge="1" parent="1" source="WmCg8ebD5vWWNZr771tL-9" target="WmCg8ebD5vWWNZr771tL-10">
          <mxGeometry relative="1" as="geometry" />
        </mxCell>
        <mxCell id="WmCg8ebD5vWWNZr771tL-9" value="Verifica disponibilidade do item" style="html=1;whiteSpace=wrap;rounded=1;" vertex="1" parent="1">
          <mxGeometry x="278" y="270" width="110" height="50" as="geometry" />
        </mxCell>
        <mxCell id="WmCg8ebD5vWWNZr771tL-28" style="edgeStyle=orthogonalEdgeStyle;rounded=0;orthogonalLoop=1;jettySize=auto;html=1;exitX=0.5;exitY=1;exitDx=0;exitDy=0;entryX=0.5;entryY=0;entryDx=0;entryDy=0;" edge="1" parent="1" source="WmCg8ebD5vWWNZr771tL-10" target="WmCg8ebD5vWWNZr771tL-12">
          <mxGeometry relative="1" as="geometry" />
        </mxCell>
        <mxCell id="WmCg8ebD5vWWNZr771tL-10" value="Selecionar quantidade" style="html=1;whiteSpace=wrap;rounded=1;" vertex="1" parent="1">
          <mxGeometry x="412" y="360" width="110" height="50" as="geometry" />
        </mxCell>
        <mxCell id="WmCg8ebD5vWWNZr771tL-29" style="edgeStyle=orthogonalEdgeStyle;rounded=0;orthogonalLoop=1;jettySize=auto;html=1;exitX=0.5;exitY=1;exitDx=0;exitDy=0;entryX=0.5;entryY=0;entryDx=0;entryDy=0;" edge="1" parent="1" source="WmCg8ebD5vWWNZr771tL-12" target="WmCg8ebD5vWWNZr771tL-18">
          <mxGeometry relative="1" as="geometry" />
        </mxCell>
        <mxCell id="WmCg8ebD5vWWNZr771tL-12" value="Adicionar ao carrinho" style="html=1;whiteSpace=wrap;rounded=1;" vertex="1" parent="1">
          <mxGeometry x="412" y="440" width="110" height="50" as="geometry" />
        </mxCell>
        <mxCell id="WmCg8ebD5vWWNZr771tL-16" value="True" style="text;html=1;align=center;verticalAlign=middle;whiteSpace=wrap;rounded=0;imageWidth=24;fontSize=10;" vertex="1" parent="1">
          <mxGeometry x="398" y="270" width="60" height="30" as="geometry" />
        </mxCell>
        <mxCell id="WmCg8ebD5vWWNZr771tL-48" style="edgeStyle=orthogonalEdgeStyle;rounded=0;orthogonalLoop=1;jettySize=auto;html=1;exitX=0.5;exitY=1;exitDx=0;exitDy=0;entryX=0.5;entryY=0;entryDx=0;entryDy=0;" edge="1" parent="1" source="WmCg8ebD5vWWNZr771tL-18" target="WmCg8ebD5vWWNZr771tL-47">
          <mxGeometry relative="1" as="geometry" />
        </mxCell>
        <mxCell id="WmCg8ebD5vWWNZr771tL-18" value="&lt;font&gt;Confirmar e efetuar pagamento&lt;/font&gt;" style="html=1;whiteSpace=wrap;rounded=1;" vertex="1" parent="1">
          <mxGeometry x="412" y="520" width="110" height="50" as="geometry" />
        </mxCell>
        <mxCell id="WmCg8ebD5vWWNZr771tL-41" style="edgeStyle=orthogonalEdgeStyle;rounded=0;orthogonalLoop=1;jettySize=auto;html=1;exitX=0;exitY=0.5;exitDx=0;exitDy=0;entryX=0;entryY=0.5;entryDx=0;entryDy=0;" edge="1" parent="1" source="WmCg8ebD5vWWNZr771tL-19" target="WmCg8ebD5vWWNZr771tL-38">
          <mxGeometry relative="1" as="geometry" />
        </mxCell>
        <mxCell id="WmCg8ebD5vWWNZr771tL-46" style="edgeStyle=orthogonalEdgeStyle;rounded=0;orthogonalLoop=1;jettySize=auto;html=1;exitX=1;exitY=0.5;exitDx=0;exitDy=0;entryX=1;entryY=0.5;entryDx=0;entryDy=0;" edge="1" parent="1" source="WmCg8ebD5vWWNZr771tL-19" target="WmCg8ebD5vWWNZr771tL-34">
          <mxGeometry relative="1" as="geometry" />
        </mxCell>
        <mxCell id="WmCg8ebD5vWWNZr771tL-19" value="Escolhe receber notificação de disponibilidade" style="html=1;whiteSpace=wrap;rounded=1;" vertex="1" parent="1">
          <mxGeometry x="148" y="360" width="110" height="50" as="geometry" />
        </mxCell>
        <mxCell id="WmCg8ebD5vWWNZr771tL-21" value="False" style="text;html=1;align=center;verticalAlign=middle;whiteSpace=wrap;rounded=0;imageWidth=24;fontSize=10;" vertex="1" parent="1">
          <mxGeometry x="208" y="270" width="60" height="30" as="geometry" />
        </mxCell>
        <mxCell id="WmCg8ebD5vWWNZr771tL-30" value="Loja" style="shape=umlFrame;whiteSpace=wrap;html=1;pointerEvents=0;" vertex="1" parent="1">
          <mxGeometry x="10" y="620" width="650" height="360" as="geometry" />
        </mxCell>
        <mxCell id="WmCg8ebD5vWWNZr771tL-34" value="" style="ellipse;html=1;shape=endState;fillColor=#000000;strokeColor=#ff0000;" vertex="1" parent="1">
          <mxGeometry x="188" y="530" width="30" height="30" as="geometry" />
        </mxCell>
        <mxCell id="WmCg8ebD5vWWNZr771tL-35" value="&#39;" style="ellipse;html=1;shape=startState;fillColor=#000000;strokeColor=#ff0000;" vertex="1" parent="1">
          <mxGeometry x="318" y="10" width="30" height="30" as="geometry" />
        </mxCell>
        <mxCell id="WmCg8ebD5vWWNZr771tL-36" value="" style="edgeStyle=orthogonalEdgeStyle;html=1;verticalAlign=bottom;endArrow=open;endSize=8;strokeColor=#ff0000;rounded=0;entryX=0.5;entryY=0;entryDx=0;entryDy=0;" edge="1" source="WmCg8ebD5vWWNZr771tL-35" parent="1" target="WmCg8ebD5vWWNZr771tL-7">
          <mxGeometry relative="1" as="geometry">
            <mxPoint x="235" y="440" as="targetPoint" />
          </mxGeometry>
        </mxCell>
        <mxCell id="WmCg8ebD5vWWNZr771tL-42" style="edgeStyle=orthogonalEdgeStyle;rounded=0;orthogonalLoop=1;jettySize=auto;html=1;exitX=0;exitY=0.5;exitDx=0;exitDy=0;entryX=0.5;entryY=1;entryDx=0;entryDy=0;" edge="1" parent="1" source="WmCg8ebD5vWWNZr771tL-38" target="WmCg8ebD5vWWNZr771tL-34">
          <mxGeometry relative="1" as="geometry">
            <Array as="points">
              <mxPoint x="203" y="685" />
            </Array>
          </mxGeometry>
        </mxCell>
        <mxCell id="WmCg8ebD5vWWNZr771tL-38" value="Manda e-mail avisando disponibilidade" style="html=1;whiteSpace=wrap;rounded=1;" vertex="1" parent="1">
          <mxGeometry x="148" y="670" width="110" height="50" as="geometry" />
        </mxCell>
        <mxCell id="WmCg8ebD5vWWNZr771tL-43" value="True" style="text;html=1;align=center;verticalAlign=middle;whiteSpace=wrap;rounded=0;imageWidth=24;fontSize=10;" vertex="1" parent="1">
          <mxGeometry x="88" y="360" width="60" height="30" as="geometry" />
        </mxCell>
        <mxCell id="WmCg8ebD5vWWNZr771tL-44" value="False" style="text;html=1;align=center;verticalAlign=middle;whiteSpace=wrap;rounded=0;imageWidth=24;fontSize=10;" vertex="1" parent="1">
          <mxGeometry x="258" y="360" width="60" height="30" as="geometry" />
        </mxCell>
        <mxCell id="WmCg8ebD5vWWNZr771tL-53" style="edgeStyle=orthogonalEdgeStyle;rounded=0;orthogonalLoop=1;jettySize=auto;html=1;exitX=1;exitY=0.5;exitDx=0;exitDy=0;" edge="1" parent="1" source="WmCg8ebD5vWWNZr771tL-47" target="WmCg8ebD5vWWNZr771tL-50">
          <mxGeometry relative="1" as="geometry" />
        </mxCell>
        <mxCell id="WmCg8ebD5vWWNZr771tL-56" style="edgeStyle=orthogonalEdgeStyle;rounded=0;orthogonalLoop=1;jettySize=auto;html=1;exitX=0;exitY=0.5;exitDx=0;exitDy=0;entryX=0.5;entryY=0;entryDx=0;entryDy=0;" edge="1" parent="1" source="WmCg8ebD5vWWNZr771tL-47" target="WmCg8ebD5vWWNZr771tL-49">
          <mxGeometry relative="1" as="geometry" />
        </mxCell>
        <mxCell id="WmCg8ebD5vWWNZr771tL-47" value="&lt;font&gt;Validar pagamento&lt;/font&gt;" style="html=1;whiteSpace=wrap;rounded=1;" vertex="1" parent="1">
          <mxGeometry x="412" y="650" width="110" height="50" as="geometry" />
        </mxCell>
        <mxCell id="WmCg8ebD5vWWNZr771tL-49" value="&lt;font&gt;Atualiza status &quot;Aprovado&quot;&lt;/font&gt;" style="html=1;whiteSpace=wrap;rounded=1;" vertex="1" parent="1">
          <mxGeometry x="302" y="740" width="110" height="50" as="geometry" />
        </mxCell>
        <mxCell id="WmCg8ebD5vWWNZr771tL-54" style="edgeStyle=orthogonalEdgeStyle;rounded=0;orthogonalLoop=1;jettySize=auto;html=1;exitX=0.5;exitY=1;exitDx=0;exitDy=0;entryX=0.5;entryY=0;entryDx=0;entryDy=0;" edge="1" parent="1" source="WmCg8ebD5vWWNZr771tL-50" target="WmCg8ebD5vWWNZr771tL-51">
          <mxGeometry relative="1" as="geometry" />
        </mxCell>
        <mxCell id="WmCg8ebD5vWWNZr771tL-50" value="&lt;font&gt;Atualizar status &quot;Reprovado&quot;&lt;/font&gt;" style="html=1;whiteSpace=wrap;rounded=1;" vertex="1" parent="1">
          <mxGeometry x="522" y="740" width="110" height="50" as="geometry" />
        </mxCell>
        <mxCell id="WmCg8ebD5vWWNZr771tL-55" style="edgeStyle=orthogonalEdgeStyle;rounded=0;orthogonalLoop=1;jettySize=auto;html=1;exitX=0.5;exitY=1;exitDx=0;exitDy=0;entryX=0.5;entryY=0;entryDx=0;entryDy=0;" edge="1" parent="1" source="WmCg8ebD5vWWNZr771tL-51" target="WmCg8ebD5vWWNZr771tL-52">
          <mxGeometry relative="1" as="geometry" />
        </mxCell>
        <mxCell id="WmCg8ebD5vWWNZr771tL-51" value="&lt;font&gt;Notifica falha ao usuario&lt;/font&gt;" style="html=1;whiteSpace=wrap;rounded=1;" vertex="1" parent="1">
          <mxGeometry x="522" y="830" width="110" height="50" as="geometry" />
        </mxCell>
        <mxCell id="WmCg8ebD5vWWNZr771tL-52" value="" style="ellipse;html=1;shape=endState;fillColor=#000000;strokeColor=#ff0000;" vertex="1" parent="1">
          <mxGeometry x="562" y="940" width="30" height="30" as="geometry" />
        </mxCell>
        <mxCell id="WmCg8ebD5vWWNZr771tL-64" style="edgeStyle=orthogonalEdgeStyle;rounded=0;orthogonalLoop=1;jettySize=auto;html=1;exitX=0.5;exitY=1;exitDx=0;exitDy=0;entryX=0.5;entryY=0;entryDx=0;entryDy=0;" edge="1" parent="1" source="WmCg8ebD5vWWNZr771tL-57" target="WmCg8ebD5vWWNZr771tL-63">
          <mxGeometry relative="1" as="geometry" />
        </mxCell>
        <mxCell id="WmCg8ebD5vWWNZr771tL-57" value="&lt;font&gt;Registra pedido&lt;/font&gt;" style="html=1;whiteSpace=wrap;rounded=1;" vertex="1" parent="1">
          <mxGeometry x="302" y="1014" width="110" height="50" as="geometry" />
        </mxCell>
        <mxCell id="WmCg8ebD5vWWNZr771tL-58" style="edgeStyle=orthogonalEdgeStyle;rounded=0;orthogonalLoop=1;jettySize=auto;html=1;exitX=0.5;exitY=1;exitDx=0;exitDy=0;entryX=0.5;entryY=0;entryDx=0;entryDy=0;" edge="1" parent="1" source="WmCg8ebD5vWWNZr771tL-49" target="WmCg8ebD5vWWNZr771tL-57">
          <mxGeometry relative="1" as="geometry">
            <mxPoint x="445" y="770" as="sourcePoint" />
            <mxPoint x="390" y="835" as="targetPoint" />
          </mxGeometry>
        </mxCell>
        <mxCell id="WmCg8ebD5vWWNZr771tL-59" value="MES" style="shape=umlFrame;whiteSpace=wrap;html=1;pointerEvents=0;" vertex="1" parent="1">
          <mxGeometry x="32" y="2079" width="650" height="360" as="geometry" />
        </mxCell>
        <mxCell id="WmCg8ebD5vWWNZr771tL-62" value="Banco de dados" style="shape=umlFrame;whiteSpace=wrap;html=1;pointerEvents=0;" vertex="1" parent="1">
          <mxGeometry x="247" y="989" width="220" height="180" as="geometry" />
        </mxCell>
        <mxCell id="WmCg8ebD5vWWNZr771tL-63" value="&lt;font&gt;Contabiliza quantidade&lt;/font&gt;" style="html=1;whiteSpace=wrap;rounded=1;" vertex="1" parent="1">
          <mxGeometry x="302" y="1094" width="110" height="50" as="geometry" />
        </mxCell>
        <mxCell id="WmCg8ebD5vWWNZr771tL-65" value="" style="shape=line;html=1;strokeWidth=6;strokeColor=#ff0000;" vertex="1" parent="1">
          <mxGeometry x="147" y="1190" width="441" height="10" as="geometry" />
        </mxCell>
        <mxCell id="WmCg8ebD5vWWNZr771tL-66" value="" style="edgeStyle=orthogonalEdgeStyle;html=1;verticalAlign=bottom;endArrow=open;endSize=8;strokeColor=#ff0000;rounded=0;entryX=0.463;entryY=0.009;entryDx=0;entryDy=0;entryPerimeter=0;exitX=0.228;exitY=0.717;exitDx=0;exitDy=0;exitPerimeter=0;" edge="1" source="WmCg8ebD5vWWNZr771tL-65" parent="1" target="WmCg8ebD5vWWNZr771tL-71">
          <mxGeometry relative="1" as="geometry">
            <mxPoint x="120" y="1270" as="targetPoint" />
          </mxGeometry>
        </mxCell>
        <mxCell id="WmCg8ebD5vWWNZr771tL-67" value="" style="shape=line;html=1;strokeWidth=6;strokeColor=#ff0000;" vertex="1" parent="1">
          <mxGeometry x="148" y="1390" width="440" height="10" as="geometry" />
        </mxCell>
        <mxCell id="WmCg8ebD5vWWNZr771tL-71" value="Node.red" style="shape=umlFrame;whiteSpace=wrap;html=1;pointerEvents=0;" vertex="1" parent="1">
          <mxGeometry x="154" y="1220" width="202" height="60" as="geometry" />
        </mxCell>
        <mxCell id="WmCg8ebD5vWWNZr771tL-72" value="&lt;font&gt;Manda OP&lt;/font&gt;" style="html=1;whiteSpace=wrap;rounded=1;" vertex="1" parent="1">
          <mxGeometry x="226" y="1225" width="110" height="50" as="geometry" />
        </mxCell>
        <mxCell id="WmCg8ebD5vWWNZr771tL-74" value="Adm MES" style="shape=umlFrame;whiteSpace=wrap;html=1;pointerEvents=0;" vertex="1" parent="1">
          <mxGeometry x="386" y="1220" width="202" height="60" as="geometry" />
        </mxCell>
        <mxCell id="WmCg8ebD5vWWNZr771tL-75" value="&lt;font&gt;Solicita o inicio da OP&lt;/font&gt;" style="html=1;whiteSpace=wrap;rounded=1;" vertex="1" parent="1">
          <mxGeometry x="468" y="1225" width="110" height="50" as="geometry" />
        </mxCell>
        <mxCell id="WmCg8ebD5vWWNZr771tL-76" value="PLC S&amp;amp; - 1500" style="shape=umlFrame;whiteSpace=wrap;html=1;pointerEvents=0;" vertex="1" parent="1">
          <mxGeometry x="154" y="1305" width="202" height="60" as="geometry" />
        </mxCell>
        <mxCell id="WmCg8ebD5vWWNZr771tL-77" value="&lt;font&gt;Aplicar Setpoints&lt;/font&gt;" style="html=1;whiteSpace=wrap;rounded=1;" vertex="1" parent="1">
          <mxGeometry x="226" y="1310" width="110" height="50" as="geometry" />
        </mxCell>
        <mxCell id="WmCg8ebD5vWWNZr771tL-78" value="MES" style="shape=umlFrame;whiteSpace=wrap;html=1;pointerEvents=0;" vertex="1" parent="1">
          <mxGeometry x="386" y="1305" width="202" height="60" as="geometry" />
        </mxCell>
        <mxCell id="WmCg8ebD5vWWNZr771tL-79" value="&lt;font&gt;Iniciar OP&lt;/font&gt;" style="html=1;whiteSpace=wrap;rounded=1;" vertex="1" parent="1">
          <mxGeometry x="468" y="1310" width="110" height="50" as="geometry" />
        </mxCell>
        <mxCell id="WmCg8ebD5vWWNZr771tL-80" value="" style="edgeStyle=orthogonalEdgeStyle;html=1;verticalAlign=bottom;endArrow=open;endSize=8;strokeColor=#ff0000;rounded=0;exitX=0.721;exitY=0.547;exitDx=0;exitDy=0;exitPerimeter=0;entryX=0.39;entryY=-0.004;entryDx=0;entryDy=0;entryPerimeter=0;" edge="1" parent="1" source="WmCg8ebD5vWWNZr771tL-65" target="WmCg8ebD5vWWNZr771tL-74">
          <mxGeometry relative="1" as="geometry">
            <mxPoint x="465" y="1220" as="targetPoint" />
            <mxPoint x="430" y="1230" as="sourcePoint" />
          </mxGeometry>
        </mxCell>
        <mxCell id="WmCg8ebD5vWWNZr771tL-88" style="edgeStyle=orthogonalEdgeStyle;rounded=0;orthogonalLoop=1;jettySize=auto;html=1;exitX=0.5;exitY=1;exitDx=0;exitDy=0;" edge="1" parent="1" source="WmCg8ebD5vWWNZr771tL-82" target="WmCg8ebD5vWWNZr771tL-85">
          <mxGeometry relative="1" as="geometry" />
        </mxCell>
        <mxCell id="WmCg8ebD5vWWNZr771tL-82" value="Sincronizar inicio de operação" style="html=1;whiteSpace=wrap;rounded=1;" vertex="1" parent="1">
          <mxGeometry x="304" y="1440" width="110" height="50" as="geometry" />
        </mxCell>
        <mxCell id="WmCg8ebD5vWWNZr771tL-85" value="Condição verdadeira" style="shape=hexagon;perimeter=hexagonPerimeter2;whiteSpace=wrap;html=1;fixedSize=1;rounded=0;" vertex="1" parent="1">
          <mxGeometry x="312.25" y="1530" width="94.5" height="30" as="geometry" />
        </mxCell>
        <mxCell id="WmCg8ebD5vWWNZr771tL-87" value="" style="edgeStyle=orthogonalEdgeStyle;html=1;verticalAlign=bottom;endArrow=open;endSize=8;strokeColor=#ff0000;rounded=0;exitX=0.48;exitY=0.384;exitDx=0;exitDy=0;exitPerimeter=0;entryX=0.5;entryY=0;entryDx=0;entryDy=0;" edge="1" parent="1" source="WmCg8ebD5vWWNZr771tL-67" target="WmCg8ebD5vWWNZr771tL-82">
          <mxGeometry relative="1" as="geometry">
            <mxPoint x="460" y="1386" as="targetPoint" />
            <mxPoint x="460" y="1360" as="sourcePoint" />
          </mxGeometry>
        </mxCell>
        <mxCell id="WmCg8ebD5vWWNZr771tL-89" style="edgeStyle=orthogonalEdgeStyle;rounded=0;orthogonalLoop=1;jettySize=auto;html=1;exitX=0.5;exitY=1;exitDx=0;exitDy=0;entryX=0.478;entryY=0.427;entryDx=0;entryDy=0;entryPerimeter=0;" edge="1" parent="1" source="WmCg8ebD5vWWNZr771tL-63" target="WmCg8ebD5vWWNZr771tL-65">
          <mxGeometry relative="1" as="geometry" />
        </mxCell>
        <mxCell id="WmCg8ebD5vWWNZr771tL-90" value="" style="shape=line;html=1;strokeWidth=6;strokeColor=#ff0000;" vertex="1" parent="1">
          <mxGeometry x="110" y="1600" width="700" height="10" as="geometry" />
        </mxCell>
        <mxCell id="WmCg8ebD5vWWNZr771tL-121" style="edgeStyle=orthogonalEdgeStyle;rounded=0;orthogonalLoop=1;jettySize=auto;html=1;exitX=1;exitY=0.5;exitDx=0;exitDy=0;exitPerimeter=0;" edge="1" parent="1" source="WmCg8ebD5vWWNZr771tL-91">
          <mxGeometry relative="1" as="geometry">
            <mxPoint x="800" y="2058" as="targetPoint" />
          </mxGeometry>
        </mxCell>
        <mxCell id="WmCg8ebD5vWWNZr771tL-91" value="" style="shape=line;html=1;strokeWidth=6;strokeColor=#ff0000;" vertex="1" parent="1">
          <mxGeometry x="110" y="2053" width="700" height="10" as="geometry" />
        </mxCell>
        <mxCell id="WmCg8ebD5vWWNZr771tL-93" value="" style="edgeStyle=orthogonalEdgeStyle;html=1;verticalAlign=bottom;endArrow=open;endSize=8;strokeColor=#ff0000;rounded=0;exitX=0.456;exitY=0.999;exitDx=0;exitDy=0;exitPerimeter=0;entryX=0.454;entryY=-0.008;entryDx=0;entryDy=0;entryPerimeter=0;" edge="1" parent="1" source="WmCg8ebD5vWWNZr771tL-71" target="WmCg8ebD5vWWNZr771tL-76">
          <mxGeometry relative="1" as="geometry">
            <mxPoint x="246" y="1300" as="targetPoint" />
            <mxPoint x="240" y="1290" as="sourcePoint" />
          </mxGeometry>
        </mxCell>
        <mxCell id="WmCg8ebD5vWWNZr771tL-94" value="" style="edgeStyle=orthogonalEdgeStyle;html=1;verticalAlign=bottom;endArrow=open;endSize=8;strokeColor=#ff0000;rounded=0;entryX=0.219;entryY=0.256;entryDx=0;entryDy=0;entryPerimeter=0;exitX=0.451;exitY=0.997;exitDx=0;exitDy=0;exitPerimeter=0;" edge="1" parent="1" source="WmCg8ebD5vWWNZr771tL-76" target="WmCg8ebD5vWWNZr771tL-67">
          <mxGeometry relative="1" as="geometry">
            <mxPoint x="230" y="1394" as="targetPoint" />
            <mxPoint x="230" y="1370" as="sourcePoint" />
            <Array as="points">
              <mxPoint x="245" y="1380" />
              <mxPoint x="244" y="1380" />
            </Array>
          </mxGeometry>
        </mxCell>
        <mxCell id="WmCg8ebD5vWWNZr771tL-95" value="" style="edgeStyle=orthogonalEdgeStyle;html=1;verticalAlign=bottom;endArrow=open;endSize=8;strokeColor=#ff0000;rounded=0;exitX=0.392;exitY=1.001;exitDx=0;exitDy=0;exitPerimeter=0;entryX=0.391;entryY=-0.001;entryDx=0;entryDy=0;entryPerimeter=0;" edge="1" parent="1" source="WmCg8ebD5vWWNZr771tL-74" target="WmCg8ebD5vWWNZr771tL-78">
          <mxGeometry relative="1" as="geometry">
            <mxPoint x="465" y="1300" as="targetPoint" />
            <mxPoint x="460" y="1290" as="sourcePoint" />
          </mxGeometry>
        </mxCell>
        <mxCell id="WmCg8ebD5vWWNZr771tL-97" value="" style="edgeStyle=orthogonalEdgeStyle;html=1;verticalAlign=bottom;endArrow=open;endSize=8;strokeColor=#ff0000;rounded=0;exitX=0.394;exitY=0.989;exitDx=0;exitDy=0;exitPerimeter=0;entryX=0.722;entryY=0.245;entryDx=0;entryDy=0;entryPerimeter=0;" edge="1" parent="1" source="WmCg8ebD5vWWNZr771tL-78" target="WmCg8ebD5vWWNZr771tL-67">
          <mxGeometry relative="1" as="geometry">
            <mxPoint x="460" y="1394" as="targetPoint" />
            <mxPoint x="460" y="1370" as="sourcePoint" />
          </mxGeometry>
        </mxCell>
        <mxCell id="WmCg8ebD5vWWNZr771tL-98" style="edgeStyle=orthogonalEdgeStyle;rounded=0;orthogonalLoop=1;jettySize=auto;html=1;exitX=0.5;exitY=1;exitDx=0;exitDy=0;" edge="1" parent="1" source="WmCg8ebD5vWWNZr771tL-85">
          <mxGeometry relative="1" as="geometry">
            <mxPoint x="360" y="1602" as="targetPoint" />
          </mxGeometry>
        </mxCell>
        <mxCell id="WmCg8ebD5vWWNZr771tL-100" value="PLC S7 - 1500" style="shape=umlFrame;whiteSpace=wrap;html=1;pointerEvents=0;" vertex="1" parent="1">
          <mxGeometry x="158" y="1620" width="182" height="420" as="geometry" />
        </mxCell>
        <mxCell id="WmCg8ebD5vWWNZr771tL-113" style="edgeStyle=orthogonalEdgeStyle;rounded=0;orthogonalLoop=1;jettySize=auto;html=1;exitX=0.5;exitY=1;exitDx=0;exitDy=0;entryX=0.5;entryY=0;entryDx=0;entryDy=0;" edge="1" parent="1" source="WmCg8ebD5vWWNZr771tL-101" target="WmCg8ebD5vWWNZr771tL-102">
          <mxGeometry relative="1" as="geometry" />
        </mxCell>
        <mxCell id="WmCg8ebD5vWWNZr771tL-101" value="Início da Produção" style="html=1;whiteSpace=wrap;rounded=1;" vertex="1" parent="1">
          <mxGeometry x="200" y="1660" width="110" height="50" as="geometry" />
        </mxCell>
        <mxCell id="WmCg8ebD5vWWNZr771tL-108" style="edgeStyle=orthogonalEdgeStyle;rounded=0;orthogonalLoop=1;jettySize=auto;html=1;exitX=1;exitY=0.5;exitDx=0;exitDy=0;entryX=1;entryY=0.5;entryDx=0;entryDy=0;" edge="1" parent="1" source="WmCg8ebD5vWWNZr771tL-102" target="WmCg8ebD5vWWNZr771tL-106">
          <mxGeometry relative="1" as="geometry" />
        </mxCell>
        <mxCell id="WmCg8ebD5vWWNZr771tL-112" style="edgeStyle=orthogonalEdgeStyle;rounded=0;orthogonalLoop=1;jettySize=auto;html=1;exitX=0.5;exitY=1;exitDx=0;exitDy=0;entryX=0.5;entryY=0;entryDx=0;entryDy=0;" edge="1" parent="1" source="WmCg8ebD5vWWNZr771tL-102" target="WmCg8ebD5vWWNZr771tL-103">
          <mxGeometry relative="1" as="geometry" />
        </mxCell>
        <mxCell id="WmCg8ebD5vWWNZr771tL-102" value="Alarme crítico" style="shape=hexagon;perimeter=hexagonPerimeter2;whiteSpace=wrap;html=1;fixedSize=1;rounded=0;" vertex="1" parent="1">
          <mxGeometry x="207.5" y="1730" width="94.5" height="30" as="geometry" />
        </mxCell>
        <mxCell id="WmCg8ebD5vWWNZr771tL-111" style="edgeStyle=orthogonalEdgeStyle;rounded=0;orthogonalLoop=1;jettySize=auto;html=1;exitX=0.5;exitY=1;exitDx=0;exitDy=0;entryX=0.5;entryY=0;entryDx=0;entryDy=0;" edge="1" parent="1" source="WmCg8ebD5vWWNZr771tL-103" target="WmCg8ebD5vWWNZr771tL-104">
          <mxGeometry relative="1" as="geometry" />
        </mxCell>
        <mxCell id="WmCg8ebD5vWWNZr771tL-103" value="Parar produção" style="html=1;whiteSpace=wrap;rounded=1;" vertex="1" parent="1">
          <mxGeometry x="200" y="1780" width="110" height="50" as="geometry" />
        </mxCell>
        <mxCell id="WmCg8ebD5vWWNZr771tL-109" style="edgeStyle=orthogonalEdgeStyle;rounded=0;orthogonalLoop=1;jettySize=auto;html=1;exitX=0.5;exitY=1;exitDx=0;exitDy=0;entryX=0.5;entryY=0;entryDx=0;entryDy=0;" edge="1" parent="1" source="WmCg8ebD5vWWNZr771tL-104" target="WmCg8ebD5vWWNZr771tL-106">
          <mxGeometry relative="1" as="geometry" />
        </mxCell>
        <mxCell id="WmCg8ebD5vWWNZr771tL-104" value="&lt;font&gt;Volta execução&lt;/font&gt;" style="html=1;whiteSpace=wrap;rounded=1;" vertex="1" parent="1">
          <mxGeometry x="200" y="1850" width="110" height="50" as="geometry" />
        </mxCell>
        <mxCell id="WmCg8ebD5vWWNZr771tL-106" value="" style="rhombus;whiteSpace=wrap;html=1;" vertex="1" parent="1">
          <mxGeometry x="229.75" y="1910" width="50" height="50" as="geometry" />
        </mxCell>
        <mxCell id="WmCg8ebD5vWWNZr771tL-107" value="&lt;font&gt;Realizar Contagens&lt;/font&gt;" style="html=1;whiteSpace=wrap;rounded=1;" vertex="1" parent="1">
          <mxGeometry x="194" y="1970" width="110" height="50" as="geometry" />
        </mxCell>
        <mxCell id="WmCg8ebD5vWWNZr771tL-110" style="edgeStyle=orthogonalEdgeStyle;rounded=0;orthogonalLoop=1;jettySize=auto;html=1;exitX=0.5;exitY=1;exitDx=0;exitDy=0;entryX=0.553;entryY=0.007;entryDx=0;entryDy=0;entryPerimeter=0;" edge="1" parent="1" source="WmCg8ebD5vWWNZr771tL-106" target="WmCg8ebD5vWWNZr771tL-107">
          <mxGeometry relative="1" as="geometry" />
        </mxCell>
        <mxCell id="WmCg8ebD5vWWNZr771tL-114" value="Não" style="text;html=1;align=center;verticalAlign=middle;whiteSpace=wrap;rounded=0;imageWidth=24;fontSize=10;" vertex="1" parent="1">
          <mxGeometry x="279.75" y="1720" width="60" height="30" as="geometry" />
        </mxCell>
        <mxCell id="WmCg8ebD5vWWNZr771tL-115" value="Sim" style="text;html=1;align=center;verticalAlign=middle;whiteSpace=wrap;rounded=0;imageWidth=24;fontSize=10;" vertex="1" parent="1">
          <mxGeometry x="207.5" y="1754" width="60" height="30" as="geometry" />
        </mxCell>
        <mxCell id="WmCg8ebD5vWWNZr771tL-116" style="edgeStyle=orthogonalEdgeStyle;rounded=0;orthogonalLoop=1;jettySize=auto;html=1;exitX=0.5;exitY=1;exitDx=0;exitDy=0;entryX=0.223;entryY=0.674;entryDx=0;entryDy=0;entryPerimeter=0;" edge="1" parent="1" source="WmCg8ebD5vWWNZr771tL-107" target="WmCg8ebD5vWWNZr771tL-91">
          <mxGeometry relative="1" as="geometry" />
        </mxCell>
        <mxCell id="WmCg8ebD5vWWNZr771tL-118" value="MES" style="shape=umlFrame;whiteSpace=wrap;html=1;pointerEvents=0;" vertex="1" parent="1">
          <mxGeometry x="588" y="1800" width="202" height="60" as="geometry" />
        </mxCell>
        <mxCell id="WmCg8ebD5vWWNZr771tL-119" value="Verificar condições" style="html=1;whiteSpace=wrap;rounded=1;" vertex="1" parent="1">
          <mxGeometry x="668" y="1805" width="110" height="50" as="geometry" />
        </mxCell>
        <mxCell id="WmCg8ebD5vWWNZr771tL-120" value="Node.red" style="shape=umlFrame;whiteSpace=wrap;html=1;pointerEvents=0;" vertex="1" parent="1">
          <mxGeometry x="376" y="1620" width="182" height="420" as="geometry" />
        </mxCell>
        <mxCell id="WmCg8ebD5vWWNZr771tL-122" value="Verificar status" style="html=1;whiteSpace=wrap;rounded=1;" vertex="1" parent="1">
          <mxGeometry x="398" y="1690" width="110" height="50" as="geometry" />
        </mxCell>
        <mxCell id="WmCg8ebD5vWWNZr771tL-123" value="Envia amostragem ao MES" style="html=1;whiteSpace=wrap;rounded=1;" vertex="1" parent="1">
          <mxGeometry x="398" y="1900" width="110" height="50" as="geometry" />
        </mxCell>
      </root>
    </mxGraphModel>
  </diagram>
</mxfile>
